<svg height='100px' width='100px'  fill="#1095c1" xmlns="http://www.w3.org/2000/svg" xmlns:xlink="http://www.w3.org/1999/xlink" version="1.1" x="0px" y="0px" viewBox="0 0 52 52" style="enable-background:new 0 0 52 52;" xml:space="preserve"><style type="text/css">
	.st0{stroke:#1095c1;stroke-width:2;stroke-linecap:round;stroke-linejoin:round;stroke-miterlimit:10;}
	.st1{stroke:#1095c1;stroke-width:2;stroke-linejoin:round;stroke-miterlimit:10;}
</style><g><circle cx="18.5028687" cy="26.9297791" r="1.8909912"></circle><path d="M34.4100342,10.0604553l0.9699707-1.9099731c0.210022-0.4100337,0.1100464-0.9100337-0.2399902-1.2100215   c-0.3599854-0.2999878-0.8699951-0.3200073-1.25-0.039978l-2.8699951,2.1300044   c-0.8099976-0.1800537-1.6099854-0.3100586-2.3999634-0.4000244l-0.7900391-3.8599849   c-0.0999756-0.4500122-0.4899902-0.7800293-0.9500122-0.8000488c-0.4899902-0.039978-0.8800049,0.3000488-1,0.7400513   l-1.0199585,3.7999873c-0.25,0.0100098-0.5,0.0299683-0.75,0.0499878l-1.1400146-5.7499995   c-0.0900269-0.460022-0.4799805-0.789978-0.9500122-0.8099976c-0.5100098-0.0200195-0.8800049,0.289978-1,0.7299805   l-1.8699951,6.7800288L14.3200073,3.050446c-0.2799683-0.3699951-0.7799683-0.5-1.1999512-0.3200073   c-0.4200439,0.1900024-0.6700439,0.6400146-0.5800171,1.1000366l1.4500122,8.0299683   C7.7200317,15.7204285,4,22.1604309,4,29.2304382c0,11.4500122,9.8700562,20.7700195,22,20.7700195   c12.1300049,0,22-9.3200073,22-20.7700195C48,20.8304749,42.5900269,13.2604675,34.4100342,10.0604553z M11.4400024,25.9304504   c0-3.3399658,2.7200317-6.0599976,6.0599976-6.0599976c3.3500366,0,6.0700073,2.7200317,6.0700073,6.0599976   c0,3.3400269-2.7199707,6.0599976-6.0700073,6.0599976C14.1600342,31.990448,11.4400024,29.2704773,11.4400024,25.9304504z    M30.960022,37.1804504l-4.0700073,7.789978C26.7200317,45.3004456,26.3800049,45.5104675,26,45.5104675   c-0.3699951,0-0.7099609-0.210022-0.8799438-0.5400391l-4.0700073-7.789978   c-0.1700439-0.3099976-0.1500244-0.6799927,0.0299683-0.9799805s0.5-0.4800415,0.8500366-0.4800415h8.1399536   c0.3500366,0,0.6799927,0.1800537,0.8600464,0.4800415C31.1100464,36.5004578,31.1200562,36.8704529,30.960022,37.1804504z    M34.5,31.990448c-3.3399658,0-6.0599976-2.7199707-6.0599976-6.0599976c0-3.3399658,2.7200317-6.0599976,6.0599976-6.0599976   c3.3500366,0,6.0700073,2.7200317,6.0700073,6.0599976C40.5700073,29.2704773,37.8500366,31.990448,34.5,31.990448z"></path><circle cx="33.5028687" cy="26.9297791" r="1.8909912"></circle></g></svg>