<svg enable-background="new 0 0 369.9 220.9" viewBox="0 0 369.9 220.9" xmlns="http://www.w3.org/2000/svg"><path d="m73.1 156.6v-93.3h-48.4v-22.2h122.8v22.2h-48.5v93.3z"/><path d="m320.7 64.8v-25.9h-25.7v25.9h-4.8l-9.3 20.5h14.1v71.3h25.7v-71.3h29v-20.5z"/><path d="m277.2 64.8h-17l-27.8 61.8-24.9-54.9c-1.5-3.3-3.2-5.7-5.2-7.2s-4.9-2.3-8.5-2.3c-3.7 0-6.6.8-8.6 2.5-2 1.6-3.8 4-5.3 7l-26.2 54.9-22.6-53h-25.5l32.9 76.3c1.2 2.8 2.8 5.1 4.8 6.7s4.9 2.5 8.7 2.5c3.4 0 6.2-.8 8.6-2.5 2.3-1.6 4.1-3.9 5.5-6.7l27.3-56.6 25.9 56.6c1.2 2.6 3 4.8 5.3 6.5 2.3 1.8 5.1 2.6 8.4 2.6 3.4 0 6.2-.9 8.6-2.6 2.3-1.7 4.1-3.9 5.3-6.5l29.1-64.6 9.2-20.5z"/><path d="m128.5 166.1v9.5h-1c-.8-3-1.8-5-3-6.1s-2.8-1.6-4.6-1.6c-1.4 0-2.6.4-3.4 1.1-.9.8-1.3 1.6-1.3 2.5 0 1.1.3 2.1 1 2.9.6.8 1.9 1.7 3.9 2.7l4.4 2.2c4.1 2 6.2 4.6 6.2 8 0 2.5-1 4.6-2.9 6.1-1.9 1.6-4.1 2.3-6.5 2.3-1.7 0-3.6-.3-5.8-.9-.7-.2-1.2-.3-1.7-.3s-.8.3-1.1.8h-1v-10h1c.6 2.9 1.7 5 3.3 6.4s3.4 2.2 5.4 2.2c1.4 0 2.5-.4 3.4-1.2s1.3-1.8 1.3-3c0-1.4-.5-2.6-1.5-3.5s-3-2.2-5.9-3.6c-2.9-1.5-4.9-2.8-5.8-4s-1.4-2.6-1.4-4.4c0-2.3.8-4.2 2.4-5.8 1.6-1.5 3.6-2.3 6.1-2.3 1.1 0 2.5.2 4 .7 1 .3 1.7.5 2 .5s.6-.1.8-.2.4-.4.7-.9h1z"/><path d="m152.3 166.1c4.2 0 7.6 1.6 10.2 4.8 2.2 2.8 3.3 5.9 3.3 9.5 0 2.5-.6 5-1.8 7.6s-2.8 4.5-4.9 5.8-4.4 2-7.1 2c-4.2 0-7.5-1.7-10-5-2.1-2.8-3.1-6-3.1-9.5 0-2.6.6-5.1 1.9-7.7s2.9-4.4 5-5.6c2-1.3 4.2-1.9 6.5-1.9zm-.9 2c-1.1 0-2.1.3-3.2 1-1.1.6-2 1.8-2.7 3.4s-1 3.7-1 6.2c0 4.1.8 7.6 2.4 10.5s3.8 4.4 6.4 4.4c2 0 3.6-.8 4.9-2.4s1.9-4.4 1.9-8.4c0-5-1.1-8.9-3.2-11.8-1.4-1.9-3.3-2.9-5.5-2.9z"/><path d="m197.5 184.3c-.8 3.7-2.2 6.5-4.4 8.5s-4.6 3-7.3 3c-3.2 0-6-1.3-8.3-4-2.4-2.7-3.5-6.3-3.5-10.8 0-4.4 1.3-8 3.9-10.7s5.8-4.1 9.4-4.1c2.8 0 5 .7 6.8 2.2s2.7 3 2.7 4.5c0 .8-.3 1.4-.8 1.9s-1.2.7-2.1.7c-1.2 0-2.1-.4-2.7-1.1-.3-.4-.5-1.2-.7-2.4-.1-1.2-.5-2.1-1.2-2.7s-1.7-.9-3-.9c-2 0-3.7.7-4.9 2.2-1.6 2-2.5 4.6-2.5 7.9s.8 6.3 2.4 8.8c1.6 2.6 3.8 3.8 6.7 3.8 2 0 3.8-.7 5.3-2 1.1-.9 2.2-2.6 3.3-5.1z"/><path d="m215.1 166.1v22.4c0 1.8.1 2.9.4 3.5s.6 1 1.1 1.3 1.4.4 2.7.4v1.1h-13.6v-1.1c1.4 0 2.3-.1 2.7-.4.5-.3.8-.7 1.1-1.3s.4-1.8.4-3.5v-10.8c0-3-.1-5-.3-5.9-.2-.7-.4-1.1-.7-1.4s-.7-.4-1.3-.4-1.2.2-2 .5l-.5-1.1 8.4-3.4h1.6zm-2.6-14.6c.9 0 1.6.3 2.2.9s.9 1.3.9 2.2c0 .8-.3 1.6-.9 2.2s-1.3.9-2.2.9-1.6-.3-2.2-.9-.9-1.3-.9-2.2.3-1.6.9-2.2 1.3-.9 2.2-.9z"/><path d="m242.5 190.9c-2.9 2.2-4.7 3.5-5.4 3.8-1.1.5-2.3.8-3.5.8-1.9 0-3.5-.7-4.8-2s-1.9-3.1-1.9-5.2c0-1.4.3-2.5.9-3.5.8-1.4 2.3-2.7 4.3-3.9 2.1-1.2 5.5-2.7 10.3-4.5v-1.1c0-2.8-.4-4.7-1.3-5.7s-2.2-1.6-3.9-1.6c-1.3 0-2.3.3-3 1-.8.7-1.2 1.5-1.2 2.4l.1 1.8c0 .9-.2 1.7-.7 2.2s-1.1.8-1.9.8-1.4-.3-1.9-.8-.7-1.3-.7-2.2c0-1.7.9-3.3 2.7-4.8s4.3-2.2 7.5-2.2c2.5 0 4.5.4 6.1 1.3 1.2.6 2.1 1.6 2.7 3 .4.9.5 2.7.5 5.4v9.5c0 2.7.1 4.3.2 4.9s.3 1 .5 1.2.5.3.8.3.6-.1.8-.2c.4-.3 1.3-1 2.5-2.2v1.7c-2.3 3-4.5 4.5-6.6 4.5-1 0-1.8-.3-2.4-1-.4-.9-.7-2-.7-3.7zm0-2v-10.7c-3.1 1.2-5 2.1-6 2.6-1.6.9-2.7 1.8-3.4 2.8s-1 2-1 3.2c0 1.5.4 2.7 1.3 3.7s1.9 1.5 3 1.5c1.5-.1 3.6-1.1 6.1-3.1z"/><path d="m267.9 151.5v37.1c0 1.8.1 2.9.4 3.5s.6 1 1.2 1.3c.5.3 1.5.4 3 .4v1.1h-13.7v-1.1c1.3 0 2.2-.1 2.6-.4.5-.3.8-.7 1.1-1.3s.4-1.8.4-3.5v-25.4c0-3.2-.1-5.1-.2-5.8s-.4-1.2-.7-1.5-.7-.4-1.2-.4-1.2.2-2 .5l-.5-1.1 8.3-3.4z"/><path d="m102.6 186.7c1.3 0 2.4.4 3.2 1.3.9.9 1.3 1.9 1.3 3.2 0 1.2-.4 2.3-1.3 3.2s-1.9 1.3-3.2 1.3c-1.2 0-2.3-.4-3.2-1.3s-1.3-2-1.3-3.2c0-1.3.4-2.3 1.3-3.2.9-.8 2-1.3 3.2-1.3z"/></svg>